<svg aria-hidden="true" focusable="false" class="fl-none" viewBox="0 0 24 24" xmlns="http://www.w3.org/2000/svg" width="24" height="24"><path fill-rule="evenodd" clip-rule="evenodd" d="M12 3C16.9706 3 21 7.02944 21 12C21 16.9706 16.9706 21 12 21C7.02944 21 3 16.9706 3 12C3 7.02944 7.02944 3 12 3ZM12 4.5C7.85786 4.5 4.5 7.85786 4.5 12C4.5 16.1421 7.85786 19.5 12 19.5C16.1421 19.5 19.5 16.1421 19.5 12C19.5 7.85786 16.1421 4.5 12 4.5ZM12 7C12.4141 7 12.7498 7.33572 12.7498 7.74984L12.749 11.5223C12.749 11.6284 12.7912 11.7302 12.8662 11.8052L15 13.9393C15.2929 14.2322 15.2929 14.7071 15 15C14.7071 15.2929 14.2322 15.2929 13.9393 15L11.3672 12.4278C11.2921 12.3528 11.25 12.2511 11.25 12.145V7.75C11.25 7.33579 11.5858 7 12 7Z"></path></svg>