<svg style="fill:pink;" data-testid="deal-illustration" class="offer-tile-refresh__illustration offer-tile-refresh__illustration-deal" width="62" height="62" viewBox="0 0 62 62" fill="none" xmlns="http://www.w3.org/2000/svg"><path fill-rule="evenodd" clip-rule="evenodd" d="M37.9124 3.08041C34.1228 -0.804469 27.8769 -0.804472 24.0873 3.0804L23.8404 3.33348C22.023 5.19655 19.5305 6.24714 16.9278 6.24714H15.9037C10.5704 6.24714 6.24689 10.5706 6.24689 15.904V16.928C6.24689 19.5307 5.19631 22.0232 3.33324 23.8406L3.08016 24.0875C-0.804713 27.8771 -0.804717 34.123 3.08016 37.9127L3.33323 38.1595C5.1963 39.9769 6.24689 42.4694 6.24689 45.0721V46.0962C6.24689 51.4295 10.5704 55.753 15.9037 55.753H16.9278C19.5305 55.753 22.023 56.8036 23.8404 58.6667L24.0872 58.9198C27.8769 62.8046 34.1228 62.8046 37.9124 58.9198L38.1593 58.6667C39.9767 56.8036 42.4692 55.753 45.0719 55.753H46.096C51.4293 55.753 55.7528 51.4295 55.7528 46.0962V45.0721C55.7528 42.4694 56.8034 39.977 58.6664 38.1595L58.9195 37.9127C62.8044 34.123 62.8044 27.8771 58.9195 24.0875L58.6664 23.8406C56.8034 22.0232 55.7528 19.5307 55.7528 16.928V15.9039C55.7528 10.5706 51.4293 6.24714 46.096 6.24714H45.0719C42.4692 6.24714 39.9767 5.19655 38.1593 3.33348L37.9124 3.08041ZM22.0068 27.1459C24.8449 27.1459 27.1457 24.8452 27.1457 22.007C27.1457 19.1689 24.8449 16.8681 22.0068 16.8681C19.1687 16.8681 16.8679 19.1689 16.8679 22.007C16.8679 24.8452 19.1687 27.1459 22.0068 27.1459ZM41.9014 20.1002C40.8979 19.0968 39.271 19.0968 38.2676 20.1002L20.0989 38.2689C19.0955 39.2724 19.0955 40.8992 20.0989 41.9027C21.1023 42.9061 22.7292 42.9061 23.7326 41.9027L41.9014 23.734C42.9048 22.7305 42.9048 21.1036 41.9014 20.1002ZM45.1318 39.9931C45.1318 42.8313 42.831 45.132 39.9929 45.132C37.1548 45.132 34.854 42.8313 34.854 39.9931C34.854 37.155 37.1548 34.8542 39.9929 34.8542C42.831 34.8542 45.1318 37.155 45.1318 39.9931Z"></path></svg>