<svg aria-hidden="true" focusable="false" class="fl-deal-text-on-white" width="32" height="32" viewBox="0 0 24 24" xmlns="http://www.w3.org/2000/svg" data-testid="discount-icon"><path fill-rule="evenodd" clip-rule="evenodd" d="M14.2419 2.94497C13.0129 1.68501 10.9872 1.68501 9.75809 2.94497L9.67803 3.02705C9.0886 3.63129 8.28022 3.97202 7.4361 3.97202H7.10397C5.37424 3.97202 3.97202 5.37424 3.97202 7.10396V7.4361C3.97202 8.28021 3.63129 9.08859 3.02705 9.67802L2.94497 9.75808C1.68501 10.9872 1.68501 13.0129 2.94497 14.2419L3.02705 14.322C3.63129 14.9114 3.97202 15.7198 3.97202 16.5639V16.8961C3.97202 18.6258 5.37424 20.028 7.10397 20.028H7.4361C8.28022 20.028 9.08859 20.3687 9.67802 20.973L9.75809 21.055C10.9872 22.315 13.0129 22.315 14.2419 21.055L14.322 20.973C14.9114 20.3687 15.7198 20.028 16.5639 20.028H16.8961C18.6258 20.028 20.028 18.6258 20.028 16.8961V16.5639C20.028 15.7198 20.3687 14.9114 20.973 14.322L21.0551 14.2419C22.315 13.0129 22.315 10.9872 21.0551 9.75808L20.973 9.67802C20.3687 9.08859 20.028 8.28021 20.028 7.43609V7.10396C20.028 5.37424 18.6258 3.97202 16.8961 3.97202H16.5639C15.7198 3.97202 14.9114 3.63129 14.322 3.02705L14.2419 2.94497ZM15.5356 8.46491C15.2102 8.13947 14.6826 8.13947 14.3571 8.46491L8.46457 14.3575C8.13913 14.6829 8.13913 15.2105 8.46457 15.536C8.79001 15.8614 9.31764 15.8614 9.64308 15.536L15.5356 9.64342C15.8611 9.31799 15.8611 8.79035 15.5356 8.46491ZM10.5 9C10.5 9.82843 9.82844 10.5 9.00001 10.5C8.17158 10.5 7.50001 9.82843 7.50001 9C7.50001 8.17158 8.17158 7.5 9.00001 7.5C9.82844 7.5 10.5 8.17158 10.5 9ZM15 16.5C15.8284 16.5 16.5 15.8284 16.5 15C16.5 14.1716 15.8284 13.5 15 13.5C14.1716 13.5 13.5 14.1716 13.5 15C13.5 15.8284 14.1716 16.5 15 16.5Z"></path></svg>