<svg style="fill: #33333;" aria-hidden="true" focusable="false" class="fl-interaction-secondary" width="24" height="24" viewBox="0 0 24 24" xmlns="http://www.w3.org/2000/svg"><path fill-rule="evenodd" clip-rule="evenodd" d="M6 3.75C4.53747 3.75 3.3416 4.8917 3.25502 6.33248L3.25 6.5V17.5C3.25 18.9625 4.3917 20.1584 5.83248 20.245L6 20.25H12C13.4625 20.25 14.6584 19.1083 14.745 17.6675L14.75 17.5V16.9969C14.75 16.5827 14.4142 16.2469 14 16.2469C13.6203 16.2469 13.3065 16.5291 13.2568 16.8952L13.25 16.9969V17.5C13.25 18.1472 12.7581 18.6795 12.1278 18.7435L12 18.75H6C5.35279 18.75 4.82047 18.2581 4.75645 17.6278L4.75 17.5V6.5C4.75 5.85279 5.24187 5.32047 5.87219 5.25645L6 5.25H12C12.6472 5.25 13.1795 5.74187 13.2435 6.37219L13.25 6.5V9.06042C13.25 9.47463 13.5858 9.81042 14 9.81042C14.3797 9.81042 14.6935 9.52827 14.7432 9.16219L14.75 9.06042V6.5C14.75 5.03747 13.6083 3.8416 12.1675 3.75502L12 3.75H6ZM17.3234 9.39702L17.4075 9.46963L20.6328 12.6944C20.7884 12.85 20.7892 13.1019 20.6345 13.2584L20.4805 13.4143C20.4261 13.4963 20.3561 13.5669 20.2746 13.6219L17.3876 16.5284C17.0958 16.8223 16.6209 16.8241 16.3269 16.5323C16.0597 16.267 16.0339 15.8505 16.2507 15.556L16.323 15.4716L17.8622 13.9204C17.9011 13.8812 17.9008 13.8179 17.8616 13.779C17.8429 13.7604 17.8176 13.75 17.7912 13.75H8.85527C8.44105 13.75 8.10527 13.4142 8.10527 13C8.10527 12.6203 8.38742 12.3065 8.7535 12.2568L8.85527 12.25H17.8258C17.881 12.25 17.9258 12.2052 17.9258 12.15C17.9258 12.1235 17.9152 12.098 17.8965 12.0793L16.3469 10.5304C16.0806 10.2641 16.0564 9.84747 16.2742 9.55384L16.3468 9.46971C16.6131 9.20342 17.0297 9.17919 17.3234 9.39702Z"></path></svg>