<svg aria-hidden="true" focusable="false" class="fl-interaction-primary" width="24" height="24" xmlns="http://www.w3.org/2000/svg" viewBox="0 0 24 24"><path fill-rule="evenodd" clip-rule="evenodd" d="M12 3C16.9706 3 21 7.02944 21 12C21 16.9706 16.9706 21 12 21C7.02944 21 3 16.9706 3 12C3 7.02944 7.02944 3 12 3ZM12 4.5C7.85786 4.5 4.5 7.85786 4.5 12C4.5 16.1421 7.85786 19.5 12 19.5C16.1421 19.5 19.5 16.1421 19.5 12C19.5 7.85786 16.1421 4.5 12 4.5ZM16.781 8.71967C17.0465 8.98594 17.0706 9.4026 16.8534 9.69621L16.781 9.78033L10.9281 15.6515C10.7917 15.7884 10.5807 15.8058 10.4253 15.7035L10.3616 15.6515L7.21899 12.4991C6.927 12.2062 6.927 11.7313 7.21899 11.4384C7.48442 11.1722 7.89979 11.1479 8.19248 11.3658L8.27634 11.4384L10.6447 13.8136L15.7237 8.71967C16.0156 8.42678 16.489 8.42678 16.781 8.71967Z"></path></svg>