<svg style="fill: #33333;" aria-hidden="true" focusable="false" class="fl-interaction-secondary" width="24" height="24" viewBox="0 0 24 24" xmlns="http://www.w3.org/2000/svg"><path d="M13.1 14H13V14.01H7.65C7.28 14.06 7 14.37 7 14.75C7 15.13 7.28 15.44 7.65 15.49H13.1C13.47 15.44 13.75 15.13 13.75 14.75C13.75 14.37 13.47 14.06 13.1 14Z"></path><path d="M16.1 14H16V14.01H15.65C15.28 14.06 15 14.37 15 14.75C15 15.13 15.28 15.44 15.65 15.49H16.1C16.47 15.44 16.75 15.13 16.75 14.75C16.75 14.37 16.47 14.06 16.1 14Z"></path><path d="M16.33 10.49H16.23V10.5H7.66C7.29 10.55 7 10.86 7 11.24C7 11.62 7.28 11.93 7.66 11.98H16.33C16.7 11.93 16.99 11.62 16.99 11.24C16.99 10.86 16.71 10.55 16.33 10.49Z"></path><path d="M16.33 6.97998H16.23V6.99998H7.66C7.29 7.05998 7 7.34998 7 7.72998C7 8.10998 7.28 8.41998 7.66 8.46998H16.33C16.7 8.41998 16.99 8.10998 16.99 7.72998C16.99 7.34998 16.71 7.03998 16.33 6.97998Z"></path><path fill-rule="evenodd" clip-rule="evenodd" d="M16.62 19.3C16.45 19.21 16.24 19.25 16.12 19.4L14.91 20.86C14.77 21.02 14.53 21.05 14.36 20.92L12.24 19.33C12.1 19.22 11.9 19.22 11.76 19.33L9.64 20.92C9.47 21.05 9.23 21.02 9.09 20.86L7.88 19.4C7.76 19.25 7.55 19.21 7.38 19.3L4.59 20.82C4.4 20.93 4.15 20.85 4.05 20.66C4.02 20.6 4 20.54 4 20.47V5C4 3.9 4.9 3 6 3H18C19.1 3 20 3.9 20 5V20.47C20 20.69 19.82 20.87 19.6 20.87C19.53 20.87 19.47 20.85 19.41 20.82L16.62 19.3ZM17.3218 17.9743C16.5429 17.5619 15.5472 17.7284 14.9597 18.4493L14.4254 19.094L13.1485 18.1364C12.4718 17.6179 11.5282 17.6179 10.8515 18.1364L9.57461 19.094L9.0403 18.4493C8.45283 17.7284 7.45715 17.5619 6.67817 17.9743L6.67025 17.9785L5.5 18.6161V5C5.5 4.72843 5.72843 4.5 6 4.5H18C18.2716 4.5 18.5 4.72843 18.5 5V18.6161L17.3297 17.9785L17.3218 17.9743Z"></path></svg>