<svg aria-hidden="true" focusable="false" class="fl-none" width="24" height="24" viewBox="0 0 24 24" xmlns="http://www.w3.org/2000/svg"><path d="M14 2C15.1046 2 16 2.89543 16 4V4.8C16 4.91046 16.0895 5 16.2 5H18C19.1046 5 20 5.89543 20 7V20C20 21.1046 19.1046 22 18 22H6C4.89543 22 4 21.1046 4 20V7C4 5.89543 4.89543 5 6 5H7.8C7.91046 5 8 4.91046 8 4.8V4C8 2.89543 8.89543 2 10 2H14ZM18.291 16.5H5.702L5.64885 16.5072C5.56422 16.5305 5.50203 16.608 5.5019 16.7L5.50011 20.3L5.50718 20.3532C5.52572 20.4209 5.57901 20.4743 5.64672 20.4929L5.7 20.5H18.2919L18.3451 20.4929C18.4298 20.4696 18.4919 20.392 18.4919 20.3L18.491 16.7L18.4839 16.6468C18.4605 16.5622 18.383 16.5 18.291 16.5ZM7.79936 6.50806H5.70806L5.65491 6.5152C5.57028 6.5385 5.50809 6.61605 5.50794 6.70806L5.50312 14.8L5.51018 14.8532C5.52871 14.9209 5.58201 14.9743 5.64972 14.9929L5.703 15H18.291L18.3442 14.9929C18.4288 14.9696 18.491 14.892 18.491 14.8L18.4919 6.70806L18.4848 6.65489C18.4615 6.57024 18.384 6.50806 18.2919 6.50806H16.1994L16.146 6.51526C16.0613 6.53865 15.9992 6.61625 15.9994 6.70829L16 7.25L15.9932 7.35177C15.9435 7.71785 15.6297 8 15.25 8L15.1482 7.99315C14.7822 7.94349 14.5 7.6297 14.5 7.25L14.4994 6.70782C14.4992 6.59745 14.4097 6.50806 14.2994 6.50806H9.69936L9.64596 6.51526C9.56134 6.53865 9.49925 6.61625 9.49936 6.70829L9.5 7.25L9.49315 7.35177C9.44349 7.71785 9.1297 8 8.75 8C8.33579 8 8 7.66421 8 7.25L7.99936 6.70782C7.99922 6.59745 7.90972 6.50806 7.79936 6.50806ZM14 3.5H10C9.75454 3.5 9.55039 3.67688 9.50806 3.91012L9.5 4V4.8C9.5 4.91046 9.58954 5 9.7 5H14.3C14.4105 5 14.5 4.91046 14.5 4.8V4C14.5 3.75454 14.3231 3.55039 14.0899 3.50806L14 3.5Z"></path></svg>