<svg aria-hidden="true" focusable="false" class="fl-none" width="24" height="24" viewBox="0 0 24 24" xmlns="http://www.w3.org/2000/svg"><path fill-rule="evenodd" clip-rule="evenodd" d="M10.978 7.6715C11.3804 7.76979 11.6269 8.17567 11.5286 8.57805L10.4015 13.1922C10.1984 14.0233 10.5609 14.8897 11.2953 15.3287L12.4349 16.0098C13.5296 16.6641 14.4352 17.592 15.0627 18.7022L16.1529 20.631C16.3567 20.9916 16.2296 21.4492 15.869 21.653C15.5084 21.8568 15.0509 21.7297 14.8471 21.3691L13.7569 19.4403C13.2574 18.5566 12.5366 17.8181 11.6654 17.2974L10.5258 16.6162C9.22642 15.8396 8.5851 14.3067 8.94431 12.8362L10.0714 8.2221C10.1697 7.81972 10.5756 7.57321 10.978 7.6715Z"></path><path fill-rule="evenodd" clip-rule="evenodd" d="M14.3325 8.36177C14.7402 8.43496 15.0114 8.8248 14.9382 9.23249L14.2 9.09997C14.9382 9.23249 14.9382 9.23239 14.9382 9.23249L14.9375 9.23651L14.9357 9.24613L14.9292 9.2815C14.9235 9.31205 14.9151 9.35628 14.9042 9.41253C14.8824 9.52499 14.8502 9.68571 14.8085 9.8813C14.7253 10.2717 14.6033 10.8048 14.4485 11.3723C14.2945 11.9371 14.1041 12.5502 13.882 13.0954C13.6695 13.6168 13.3926 14.1679 13.0302 14.5302C12.7373 14.8231 12.2625 14.8231 11.9696 14.5302C11.6767 14.2373 11.6767 13.7624 11.9696 13.4695C12.1072 13.3319 12.2928 13.0205 12.4929 12.5294C12.6833 12.0621 12.8554 11.5127 13.0014 10.9776C13.1466 10.445 13.2622 9.9407 13.3415 9.56861C13.381 9.38297 13.4114 9.2312 13.4317 9.12647C13.4419 9.07413 13.4496 9.0336 13.4546 9.00653L13.4602 8.97626L13.4615 8.96909L13.4618 8.96757C13.535 8.55993 13.9249 8.28859 14.3325 8.36177Z"></path><path fill-rule="evenodd" clip-rule="evenodd" d="M13.2 5.8999C13.7523 5.8999 14.2 5.45219 14.2 4.8999C14.2 4.34762 13.7523 3.8999 13.2 3.8999C12.6477 3.8999 12.2 4.34762 12.2 4.8999C12.2 5.45219 12.6477 5.8999 13.2 5.8999ZM13.2 7.3999C14.5807 7.3999 15.7 6.28061 15.7 4.8999C15.7 3.51919 14.5807 2.3999 13.2 2.3999C11.8193 2.3999 10.7 3.51919 10.7 4.8999C10.7 6.28061 11.8193 7.3999 13.2 7.3999Z"></path><path fill-rule="evenodd" clip-rule="evenodd" d="M10.7518 9.03582C8.43465 8.66945 7.3 10.1419 7.3 11.3C7.3 11.7142 6.96421 12.05 6.55 12.05C6.13579 12.05 5.8 11.7142 5.8 11.3C5.8 9.12931 7.85651 7.04201 11.0211 7.55986L11.0491 7.56444L14.3767 8.37112C14.7793 8.46871 15.0265 8.87416 14.9289 9.27671C14.8313 9.67926 14.4259 9.92649 14.0233 9.8289L10.7518 9.03582Z"></path><path fill-rule="evenodd" clip-rule="evenodd" d="M14.9319 9.72425C14.9407 9.52054 14.95 9.30432 14.95 9.0999C14.95 8.68569 14.6142 8.3499 14.2 8.3499C13.7858 8.3499 13.45 8.68569 13.45 9.0999C13.45 9.26992 13.4422 9.45254 13.4332 9.66234C13.4322 9.68501 13.4312 9.708 13.4302 9.73132C13.4204 9.96302 13.4104 10.2211 13.4138 10.4846C13.4206 11.006 13.4791 11.6116 13.7361 12.1827C14.0036 12.7772 14.4656 13.2886 15.1906 13.638C15.8945 13.9773 16.8156 14.1499 18 14.1499C18.4142 14.1499 18.75 13.8141 18.75 13.3999C18.75 12.9857 18.4142 12.6499 18 12.6499C16.9444 12.6499 16.2705 12.4934 15.8419 12.2868C15.4344 12.0904 15.2264 11.8393 15.1039 11.5671C14.9709 11.2715 14.9194 10.9063 14.9137 10.4652C14.9109 10.2474 14.919 10.0264 14.9289 9.79504C14.9298 9.77164 14.9309 9.74803 14.9319 9.72425Z"></path><path fill-rule="evenodd" clip-rule="evenodd" d="M8.95777 16.366C9.3355 16.536 9.50392 16.98 9.33394 17.3578L9.15059 17.7652C8.64057 18.8986 7.93609 19.934 7.06905 20.8244L6.43735 21.4732C6.14839 21.77 5.67356 21.7763 5.37679 21.4873C5.08002 21.1984 5.07368 20.7235 5.36265 20.4268L5.99434 19.778C6.73926 19.013 7.34452 18.1234 7.78271 17.1497L7.96606 16.7422C8.13604 16.3645 8.58004 16.1961 8.95777 16.366Z"></path></svg>