<svg aria-hidden="true" focusable="false" class="fl-none" width="24" height="24" viewBox="0 0 24 24" xmlns="http://www.w3.org/2000/svg"><path fill-rule="evenodd" clip-rule="evenodd" d="M21.2585 11.1816L21.2573 19.6567C21.2573 20.3522 20.7369 20.9243 20.07 20.9931L19.9347 21H4.0644C3.37964 21 2.81642 20.4714 2.7487 19.7941L2.74187 19.6567L2.74152 11.1824C2.28063 10.667 1.99976 9.98246 1.99976 9.23132L2.00695 9.02552L2.02848 8.82077L2.68496 4.15331C2.77183 3.53567 3.2637 3.0663 3.86401 3.00646L3.9942 3H20.0049C20.6192 3 21.1463 3.42819 21.2895 4.02333L21.3142 4.15331L21.9707 8.82077C22.0958 9.71058 21.8095 10.5637 21.2585 11.1816ZM10.677 19.5H13.3221V15.8955C13.3221 15.2464 12.8688 14.7048 12.2661 14.5795L12.1348 14.5592L11.9996 14.5522C11.3148 14.5522 10.7516 15.0808 10.6839 15.7582L10.677 15.8955V19.5ZM19.7583 11.9525L19.7573 19.5H14.8221V15.8955C14.8221 14.5372 13.8714 13.3811 12.5713 13.1109L12.5338 13.1031L12.2885 13.0651L12.038 13.0522H11.9996C10.5176 13.0522 9.33304 14.1915 9.19132 15.6089L9.18758 15.6463L9.17705 15.8583V19.5H4.24186L4.24155 11.953C4.34993 11.9777 4.46088 11.9961 4.57404 12.0078L4.6125 12.0118L4.81947 12.0224H5.12242C5.9724 12.0224 6.72457 11.6476 7.23825 11.0605C7.69253 11.5794 8.33373 11.9321 9.06539 12.0075L9.10385 12.0115L9.31607 12.0224H9.88353C10.7335 12.0224 11.4857 11.6476 11.9994 11.0605C12.4536 11.5794 13.0948 11.9321 13.8265 12.0075L13.865 12.0115L14.0772 12.0224H14.6446C15.4946 12.0224 16.2468 11.6476 16.7605 11.0605C17.2147 11.5794 17.8559 11.9321 18.5876 12.0075L18.6261 12.0115L18.8383 12.0224H19.1412C19.2735 12.0224 19.4055 12.0129 19.5364 11.9939C19.6116 11.983 19.6856 11.9691 19.7583 11.9525ZM8.03155 5.04175C8.03155 4.80435 8.22102 4.6119 8.45476 4.61194H10.7824C11.0161 4.61198 11.2056 4.80441 11.2057 5.04179L11.2061 9.1791L11.1992 9.31645C11.1315 9.99381 10.5683 10.5224 9.88353 10.5224H9.35452L9.21929 10.5155C8.5524 10.4467 8.03199 9.87461 8.03199 9.1791L8.03155 5.04175ZM17.5538 5.04175C17.5538 4.80435 17.7432 4.6119 17.977 4.61194H19.4086C19.6192 4.61194 19.7977 4.76924 19.8275 4.98101L20.3996 9.04873L20.4115 9.18035C20.4377 9.83419 19.9725 10.4149 19.321 10.5094C19.2615 10.5181 19.2014 10.5224 19.1412 10.5224H18.8767L18.7415 10.5155C18.0746 10.4467 17.5542 9.87461 17.5542 9.1791L17.5538 5.04175ZM3.58679 9.23132L3.59398 9.09418L4.15793 5.07347C4.19507 4.80867 4.41831 4.61194 4.68165 4.61194H5.9155C6.20765 4.61199 6.44448 4.85252 6.44456 5.14925L6.44495 9.1791L6.43812 9.31645C6.3704 9.99381 5.80718 10.5224 5.12242 10.5224H4.85792L4.72795 10.5157C4.08698 10.4496 3.58679 9.89979 3.58679 9.23132ZM12.7931 9.1791L12.7927 5.04175C12.7927 4.80435 12.9821 4.6119 13.2159 4.61194H15.5435C15.7772 4.61198 15.9667 4.80441 15.9668 5.04179L15.9672 9.1791L15.9603 9.31645C15.8926 9.99381 15.3294 10.5224 14.6446 10.5224H14.1156L13.9804 10.5155C13.3135 10.4467 12.7931 9.87461 12.7931 9.1791Z"></path></svg>