<svg style="fill: #ffb413;" data-testid="stamp-card-illustration" class="offer-tile-refresh__illustration offer-tile-refresh__illustration-stamp-card" width="64" height="64" viewBox="0 0 64 64" fill="none" xmlns="http://www.w3.org/2000/svg"><path id="shape" fill-rule="evenodd" clip-rule="evenodd" d="M37 65.25C54.8112 65.25 69.25 50.8112 69.25 33C69.25 32.7217 69.257 32.7391 69.25 32.4625L69.2436 32.3529H67.1239C63.0075 32.3529 59.024 33.8094 55.8785 36.4646C51.2783 40.3477 45.4525 42.4779 39.4325 42.4779H39.2048C36.9784 42.4779 35.1736 40.673 35.1736 38.4466C35.1736 36.2202 36.9784 34.4154 39.2048 34.4154H39.4325C43.5488 34.4154 47.5324 32.9588 50.6779 30.3036C55.2781 26.4205 61.1039 24.2904 67.1239 24.2904H68.0602C67.6201 22.7178 67.1276 21.3356 66.4649 19.8699L63.0378 20.0999C58.9215 20.0999 54.9379 21.5564 51.7924 24.2116C47.1922 28.0947 41.3664 30.2248 35.3464 30.2249L35.1188 30.2249C32.8924 30.2249 31.0875 28.42 31.0875 26.1936C31.0875 23.9672 32.8923 22.1624 35.1187 22.1624H35.3464C39.4627 22.1623 43.4463 20.7058 46.5918 18.0506C50.9201 14.397 56.3334 12.7712 61.9725 12.5917C56.0584 5.36349 47.068 0.75 37 0.75C19.1888 0.75 4.75 15.1888 4.75 33C4.75 50.8112 19.1888 65.25 37 65.25ZM43.7577 14.2459C45.2787 13.0589 46.8983 12.0253 48.5929 11.1525C45.1367 9.31568 41.1929 8.275 37.0061 8.275C23.3508 8.275 12.2811 19.3448 12.2811 33C12.2811 46.6552 23.3508 57.725 37.0061 57.725C48.7513 57.725 58.5837 49.5355 61.1045 38.5552C60.1064 38.9922 59.1595 39.5545 58.2883 40.2344C55.0931 42.7278 51.4627 44.5449 47.6166 45.6147C44.7494 48.0288 41.0476 49.4833 37.0061 49.4833C27.9026 49.4833 20.5227 42.1035 20.5227 33C20.5227 23.8965 27.9026 16.5167 37.0061 16.5167C37.6477 16.5167 38.2808 16.5533 38.9034 16.6247C40.6558 16.1797 42.311 15.3748 43.7577 14.2459Z"></path></svg>