<svg style="fill: #33333;" aria-hidden="true" focusable="false" class="fl-interaction-secondary" width="24" height="24" viewBox="0 0 24 24" xmlns="http://www.w3.org/2000/svg" data-testid="ic-wallet"><path fill-rule="evenodd" clip-rule="evenodd" d="M17.1329 3.68843L17.2248 3.82126L19.0761 6.77632C19.1371 6.87359 19.2369 6.94 19.3501 6.95863C19.4068 6.96796 19.4532 6.97715 19.4892 6.9862C20.3573 7.20445 21 7.99014 21 8.92594V18.9259C21 20.0305 20.1046 20.9259 19 20.9259H5C3.89543 20.9259 3 20.0305 3 18.9259V8.92594C3 7.82137 3.89543 6.92594 5 6.92594L7.96747 6.92503C8.0341 6.92501 8.09967 6.90835 8.15822 6.87655L14.9066 3.21234C15.6711 2.79721 16.6154 3.00902 17.1329 3.68843ZM19 8.42594L8.449 8.425L8.39623 8.45442L8.38 8.425L5 8.42594C4.75454 8.42594 4.55039 8.60282 4.50806 8.83606L4.5 8.92594V18.9259C4.5 19.1714 4.67688 19.3755 4.91012 19.4179L5 19.4259H19C19.2455 19.4259 19.4496 19.2491 19.4919 19.0158L19.5 18.9259V17.149C19.5 16.9281 19.3209 16.749 19.1 16.749C19.1 16.749 19.1 16.749 19.1 16.749L17.3621 16.7492C15.8231 16.7492 14.5754 15.5016 14.5754 13.9626C14.5754 12.4806 15.7323 11.2688 17.1923 11.181L17.3621 11.1759L19.1 11.1752C19.3208 11.1749 19.4998 10.9958 19.5 10.775V8.92594C19.5 8.68048 19.3231 8.47633 19.0899 8.434L19 8.42594ZM19.1 12.6752L17.3621 12.6759C16.6515 12.6759 16.0754 13.252 16.0754 13.9626C16.0754 14.6287 16.5817 15.1767 17.2305 15.2425L17.3621 15.2492L19.1 15.249C19.3209 15.249 19.5 15.0699 19.5 14.849V13.075C19.5002 12.8541 19.3209 12.6752 19.1 12.6752C19.1001 12.675 19.0999 12.6752 19.1 12.6752ZM15.4416 4.62872L11.5581 6.73712C11.5095 6.76347 11.4915 6.82418 11.5179 6.87271C11.5354 6.90493 11.5691 6.925 11.6058 6.925H17.0377C17.1482 6.925 17.2377 6.83546 17.2377 6.725C17.2377 6.68745 17.2271 6.65065 17.2072 6.61883C16.8073 5.98039 16.4074 5.34194 16.0074 4.7035C15.907 4.54315 15.6991 4.48864 15.5329 4.57903L15.4416 4.62872Z"></path></svg>