<svg style="fill: #33333;" aria-hidden="true" focusable="false" class="fl-interaction-secondary" width="24" height="24" viewBox="0 0 24 24" xmlns="http://www.w3.org/2000/svg"><path fill-rule="evenodd" clip-rule="evenodd" d="M12 3C16.9706 3 21 7.02944 21 12C21 16.9706 16.9706 21 12 21C7.02944 21 3 16.9706 3 12C3 7.02944 7.02944 3 12 3ZM12 4.5C7.85786 4.5 4.5 7.85786 4.5 12C4.5 16.1421 7.85786 19.5 12 19.5C16.1421 19.5 19.5 16.1421 19.5 12C19.5 7.85786 16.1421 4.5 12 4.5ZM12 15C12.5523 15 13 15.4477 13 16C13 16.5523 12.5523 17 12 17C11.4477 17 11 16.5523 11 16C11 15.4477 11.4477 15 12 15ZM12 6.25C13.9177 6.25 15.4722 7.80457 15.4722 9.72222C15.4722 11.2377 14.5013 12.5264 13.1476 13.0003C13.0739 13.0261 12.999 13.0495 12.9231 13.0704C12.8214 13.0954 12.75 13.1866 12.75 13.2912V13.6C12.75 13.8209 12.5709 14 12.35 14H11.65C11.4291 14 11.25 13.8209 11.25 13.6V12.0877C11.2499 11.87 11.424 11.6922 11.6417 11.6877C12.0839 11.6785 12.3398 11.6666 12.4093 11.6519C13.3021 11.4635 13.9722 10.6711 13.9722 9.72222C13.9722 8.63299 13.0892 7.75 12 7.75C11.0695 7.75 10.2895 8.39439 10.0819 9.26125C10.0758 9.28688 10.0694 9.32477 10.0628 9.37491C10.0363 9.5737 9.86677 9.72222 9.66623 9.72222H8.95763C8.73673 9.72219 8.55766 9.54312 8.55766 9.32222C8.55766 9.30963 8.55826 9.29704 8.55945 9.2845C8.56595 9.21588 8.57223 9.16394 8.57831 9.12868C8.85991 7.49379 10.2847 6.25 12 6.25Z"></path></svg>