<svg style="fill: #33333;" aria-hidden="true" focusable="false" class="fl-interaction-primary" width="24" height="24" viewBox="0 0 24 24" xmlns="http://www.w3.org/2000/svg" data-testid="personal-icon"><path fill-rule="evenodd" clip-rule="evenodd" d="M12 11.5C13.933 11.5 15.5 9.933 15.5 8C15.5 6.067 13.933 4.5 12 4.5C10.067 4.5 8.50001 6.067 8.50001 8C8.50001 9.933 10.067 11.5 12 11.5ZM10.0566 14.2045C10.679 14.071 11.33 14.0001 12 14C12.0003 14 12.0007 14 12.001 14C12.6709 14 13.3218 14.0708 13.9442 14.2042C17.1008 14.881 19.5251 17.1688 19.9907 20.0041C20.0802 20.5491 19.6241 21 19.0718 21H4.93021C4.37792 21 3.92177 20.5491 4.01127 20.0041C4.47684 17.1692 6.90063 14.8815 10.0566 14.2045ZM10.1743 12.6562C8.31584 11.9269 7.00001 10.1171 7.00001 8C7.00001 5.23858 9.23858 3 12 3C14.7614 3 17 5.23858 17 8C17 10.1169 15.6845 11.9265 13.8263 12.656C13.2609 12.8779 12.6452 12.9999 12.001 13C12.0007 13 12.0003 13 12 13C11.3557 13 10.7399 12.8781 10.1743 12.6562ZM18.3216 19.5C17.5644 17.2951 15.1351 15.5 12.001 15.5C8.86687 15.5 6.43759 17.2951 5.6804 19.5H18.3216Z"></path></svg>