<svg xmlns="http://www.w3.org/2000/svg" width="24" height="24" viewBox="0 0 24 24" aria-hidden="true" focusable="false"><path d="M20.4989485,19.7847749 L19.7848083,20.4989151 L14.464571,15.1786777 C11.9860659,17.2743894 8.29591013,17.0430407 6.09855923,14.6541653 C3.90118417,12.2652635 3.97833814,8.56861232 6.27347523,6.27347523 C8.56861232,3.97833814 12.2652635,3.90118417 14.6541653,6.09855923 C17.04296,8.29583589 17.2743738,11.9858166 15.1782471,14.4650787 L20.4989485,19.7847749 Z M14.415008,13.8189639 C16.164669,11.7497903 15.9715459,8.66902636 13.9771779,6.83455387 C11.9828099,5.00008139 8.89667087,5.06449316 6.98058201,6.98058201 C5.06449316,8.89667087 5.00008139,11.9828099 6.83455387,13.9771779 C8.66902636,15.9715459 11.7497903,16.164669 13.8176685,14.4161071 L14.1437265,14.138492 L14.415008,13.8189639 Z"></path></svg>