<svg aria-hidden="true" focusable="false" class="fl-loyalty-icon" width="24" height="24" viewBox="0 0 16 16" xmlns="http://www.w3.org/2000/svg" data-testid="stamp-icon" style="z-index: 2;"><path fill-rule="evenodd" clip-rule="evenodd" d="M8 14C11.3137 14 14 11.3137 14 8C14 7.94822 14.0013 7.95146 14 7.9L13.9988 7.87961H13.6044C12.8386 7.87961 12.0975 8.15059 11.5123 8.64458C10.6564 9.36702 9.57255 9.76332 8.45256 9.76332H8.4102C7.99599 9.76332 7.6602 9.42754 7.6602 9.01332C7.6602 8.59911 7.99598 8.26332 8.4102 8.26332H8.45255C9.21838 8.26332 9.95951 7.99234 10.5447 7.49835C11.4006 6.77591 12.4844 6.37961 13.6044 6.37961H13.7786C13.6968 6.08702 13.6051 5.82987 13.4818 5.55718L12.8442 5.59998C12.0784 5.59998 11.3373 5.87096 10.7521 6.36495C9.89623 7.08739 8.81236 7.48369 7.69236 7.48369L7.65 7.48369C7.23579 7.48369 6.9 7.14791 6.9 6.73369C6.9 6.31948 7.23579 5.98369 7.65 5.98369H7.69236C8.45818 5.98369 9.19931 5.71271 9.78452 5.21872C10.5898 4.53899 11.5969 4.2365 12.6461 4.20311C11.5457 2.85832 9.87311 2 8 2C4.68629 2 2 4.68629 2 8C2 11.3137 4.68629 14 8 14ZM9.25724 4.51086C9.54022 4.29003 9.84155 4.09772 10.1568 3.93535C9.51381 3.59362 8.78008 3.4 8.00113 3.4C5.46062 3.4 3.40113 5.45949 3.40113 8C3.40113 10.5405 5.46062 12.6 8.00113 12.6C10.1863 12.6 12.0156 11.0764 12.4846 9.03352C12.2989 9.11482 12.1227 9.21945 11.9606 9.34594C11.3662 9.80983 10.6907 10.1479 9.97517 10.3469C9.44175 10.7961 8.75304 11.0667 8.00113 11.0667C6.30746 11.0667 4.93446 9.69367 4.93446 8C4.93446 6.30633 6.30746 4.93333 8.00113 4.93333C8.12051 4.93333 8.2383 4.94016 8.35412 4.95343C8.68015 4.87065 8.98809 4.7209 9.25724 4.51086Z"></path></svg>